<svg width="142" height="142" viewBox="0 0 142 142" fill="none" xmlns="http://www.w3.org/2000/svg">
<g clip-path="url(#clip0_232_2)">
<rect width="142" height="142" rx="50" fill="black"/>
<path d="M74.0873 48.407C73.7219 49.357 73.4661 50.3436 73.32 51.3667C73.1738 52.3168 73.1007 53.3033 73.1007 54.3265C73.1007 57.0304 73.6123 59.6248 74.6354 62.1095C75.7316 64.5942 76.9009 67.0789 78.1432 69.5636C78.2894 69.856 78.399 70.1483 78.4721 70.4406C78.6183 70.6598 78.7644 70.8791 78.9106 71.0983C79.1298 71.5368 79.3491 72.0118 79.5683 72.5234C79.7875 72.9619 80.0068 73.4003 80.226 73.8388C81.0299 75.5927 81.6876 77.3832 82.1992 79.2102C82.7107 80.9641 83.0761 82.7546 83.2954 84.5816C83.3685 85.1662 83.405 85.7874 83.405 86.4451C83.4781 87.0298 83.5146 87.6144 83.5146 88.199C83.4415 94.557 81.6876 100.55 78.2529 106.177C74.8912 111.731 70.141 115.969 64.0023 118.893L57.3154 104.971C60.604 103.363 63.1618 101.025 64.9888 97.9552C66.8889 94.8859 67.839 91.6338 67.839 88.199C67.839 87.5413 67.8024 86.9201 67.7293 86.3355C67.6563 85.6778 67.5466 85.0201 67.4005 84.3623C67.2543 83.7046 67.0716 83.0834 66.8524 82.4988C66.6331 81.8411 66.3774 81.1834 66.085 80.5256L60.604 69.1252C59.8732 67.5174 59.2521 65.9096 58.7405 64.3019C58.2289 62.6941 57.8635 61.0864 57.6443 59.4786C57.5712 58.6747 57.4981 57.8708 57.4251 57.067C57.352 56.2631 57.3154 55.4592 57.3154 54.6553C57.3154 48.2974 59.0328 42.3413 62.4676 36.7873C65.9023 31.1601 70.6525 26.8849 76.7182 23.9617L83.405 38.1027C81.2126 39.1258 79.3125 40.5509 77.7048 42.3779C76.097 44.1318 74.8912 46.1415 74.0873 48.407Z" fill="#905DFF"/>
</g>
<defs>
<clipPath id="clip0_232_2">
<rect width="142" height="142" rx="50" fill="white"/>
</clipPath>
</defs>
</svg>
